<?xml version="1.0" encoding="us-ascii" standalone="no"?><svg xmlns="http://www.w3.org/2000/svg" xmlns:xlink="http://www.w3.org/1999/xlink" contentStyleType="text/css" height="1627px" preserveAspectRatio="none" style="width:1918px;height:1627px;background:#FFFFFF;" version="1.1" viewBox="0 0 1918 1627" width="1918px" zoomAndPan="magnify"><defs/><g><text fill="#000000" font-family="Arial" font-size="14" font-weight="bold" lengthAdjust="spacing" textLength="432" x="736.15" y="23.3608">Diagrama de Estados: Ciclo de Vida y Clasificaci&#243;n del Afiliado</text><!--cluster AptoParaValidacion--><g id="cluster_AptoParaValidacion"><path d="M482.8,397.0986 L1547.8,397.0986 A12.5,12.5 0 0 1 1560.3,409.5986 L1560.3,415.8975 L470.3,415.8975 L470.3,409.5986 A12.5,12.5 0 0 1 482.8,397.0986 " fill="#E8F0FE" style="stroke:#E8F0FE;stroke-width:1.0;"/><rect fill="none" height="772" rx="12.5" ry="12.5" style="stroke:#4A5568;stroke-width:0.5;" width="1090" x="470.3" y="397.0986"/><line style="stroke:#4A5568;stroke-width:0.5;" x1="470.3" x2="1560.3" y1="415.8975" y2="415.8975"/><text fill="#2D3748" font-family="Arial" font-size="12" lengthAdjust="spacing" textLength="117" x="956.8" y="412.5508">Apto Para Asignaci&#243;n</text></g><!--cluster Ca?oMochuelo--><g id="cluster_Ca&#241;oMochuelo"><path d="M530.8,666.0986 L1013.8,666.0986 A12.5,12.5 0 0 1 1026.3,678.5986 L1026.3,684.8975 L518.3,684.8975 L518.3,678.5986 A12.5,12.5 0 0 1 530.8,666.0986 " fill="#E8F0FE" style="stroke:#E8F0FE;stroke-width:1.0;"/><rect fill="none" height="463" rx="12.5" ry="12.5" style="stroke:#4A5568;stroke-width:0.5;" width="508" x="518.3" y="666.0986"/><line style="stroke:#4A5568;stroke-width:0.5;" x1="518.3" x2="1026.3" y1="684.8975" y2="684.8975"/><text fill="#2D3748" font-family="Arial" font-size="12" lengthAdjust="spacing" textLength="144" x="700.3" y="681.5508">Poblaci&#243;n Ca&#241;o Mochuelo</text></g><!--cluster PoblacionGeneral--><g id="cluster_PoblacionGeneral"><path d="M1078.8,666.0986 L1507.8,666.0986 A12.5,12.5 0 0 1 1520.3,678.5986 L1520.3,684.8975 L1066.3,684.8975 L1066.3,678.5986 A12.5,12.5 0 0 1 1078.8,666.0986 " fill="#E8F0FE" style="stroke:#E8F0FE;stroke-width:1.0;"/><rect fill="none" height="320" rx="12.5" ry="12.5" style="stroke:#4A5568;stroke-width:0.5;" width="454" x="1066.3" y="666.0986"/><line style="stroke:#4A5568;stroke-width:0.5;" x1="1066.3" x2="1520.3" y1="684.8975" y2="684.8975"/><text fill="#2D3748" font-family="Arial" font-size="12" lengthAdjust="spacing" textLength="102" x="1242.3" y="681.5508">Poblaci&#243;n General</text></g><ellipse cx="662.3" cy="447.0986" fill="#222222" rx="10" ry="10" style="stroke:#222222;stroke-width:1.0;"/><g id="AptoParaValidacion.EvaluandoPoblacion"><rect fill="#E8F0FE" height="50" rx="12.5" ry="12.5" style="stroke:#4A5568;stroke-width:0.5;" width="136" x="594.3" y="547.0986"/><line style="stroke:#4A5568;stroke-width:0.5;" x1="594.3" x2="730.3" y1="570.8975" y2="570.8975"/><text fill="#2D3748" font-family="Arial" font-size="12" lengthAdjust="spacing" textLength="116" x="604.3" y="563.5508">Evaluando Poblaci&#243;n</text></g><ellipse cx="694.3" cy="716.0986" fill="#222222" rx="10" ry="10" style="stroke:#222222;stroke-width:1.0;"/><g id="AptoParaValidacion.Ca&#241;oMochuelo.ChequearUbicacion"><rect fill="#E8F0FE" height="50" rx="12.5" ry="12.5" style="stroke:#4A5568;stroke-width:0.5;" width="133" x="627.8" y="787.0986"/><line style="stroke:#4A5568;stroke-width:0.5;" x1="627.8" x2="760.8" y1="810.8975" y2="810.8975"/><text fill="#2D3748" font-family="Arial" font-size="12" lengthAdjust="spacing" textLength="113" x="637.8" y="803.5508">Validando Ubicaci&#243;n</text></g><g id="AptoParaValidacion.Ca&#241;oMochuelo.ValidandoIPSEspecial"><rect fill="#E8F0FE" height="50" rx="12.5" ry="12.5" style="stroke:#4A5568;stroke-width:0.5;" width="148" x="729.3" y="912.0986"/><line style="stroke:#4A5568;stroke-width:0.5;" x1="729.3" x2="877.3" y1="935.8975" y2="935.8975"/><text fill="#2D3748" font-family="Arial" font-size="12" lengthAdjust="spacing" textLength="128" x="739.3" y="928.5508">Validando IPS Especial</text></g><g id="AptoParaValidacion.Ca&#241;oMochuelo.ChequearPortabilidad"><rect fill="#E8F0FE" height="50" rx="12.5" ry="12.5" style="stroke:#4A5568;stroke-width:0.5;" width="144" x="550.3" y="912.0986"/><line style="stroke:#4A5568;stroke-width:0.5;" x1="550.3" x2="694.3" y1="935.8975" y2="935.8975"/><text fill="#2D3748" font-family="Arial" font-size="12" lengthAdjust="spacing" textLength="124" x="560.3" y="928.5508">Validando Portabilidad</text></g><g id="AptoParaValidacion.Ca&#241;oMochuelo.ValidandoRedReceptora"><rect fill="#E8F0FE" height="50" rx="12.5" ry="12.5" style="stroke:#4A5568;stroke-width:0.5;" width="161" x="708.8" y="1055.0986"/><line style="stroke:#4A5568;stroke-width:0.5;" x1="708.8" x2="869.8" y1="1078.8975" y2="1078.8975"/><text fill="#2D3748" font-family="Arial" font-size="12" lengthAdjust="spacing" textLength="141" x="718.8" y="1071.5508">Validando Red Receptora</text></g><g id="AptoParaValidacion.Ca&#241;oMochuelo.AnomaliaIndigena"><rect fill="#FCE8E6" height="50" rx="12.5" ry="12.5" style="stroke:#4A5568;stroke-width:0.5;" width="123" x="550.8" y="1055.0986"/><line style="stroke:#4A5568;stroke-width:0.5;" x1="550.8" x2="673.8" y1="1078.8975" y2="1078.8975"/><text fill="#2D3748" font-family="Arial" font-size="12" lengthAdjust="spacing" textLength="103" x="560.8" y="1071.5508">Anomal&#237;a Ind&#237;gena</text></g><ellipse cx="1251.3" cy="716.0986" fill="#222222" rx="10" ry="10" style="stroke:#222222;stroke-width:1.0;"/><g id="AptoParaValidacion.PoblacionGeneral.BuscarContratoGeneral"><rect fill="#E8F0FE" height="50" rx="12.5" ry="12.5" style="stroke:#4A5568;stroke-width:0.5;" width="126" x="1188.3" y="787.0986"/><line style="stroke:#4A5568;stroke-width:0.5;" x1="1188.3" x2="1314.3" y1="810.8975" y2="810.8975"/><text fill="#2D3748" font-family="Arial" font-size="12" lengthAdjust="spacing" textLength="106" x="1198.3" y="803.5508">Buscando Contrato</text></g><g id="AptoParaValidacion.PoblacionGeneral.ValidandoRedGeneral"><rect fill="#E8F0FE" height="50" rx="12.5" ry="12.5" style="stroke:#4A5568;stroke-width:0.5;" width="148" x="1098.3" y="912.0986"/><line style="stroke:#4A5568;stroke-width:0.5;" x1="1098.3" x2="1246.3" y1="935.8975" y2="935.8975"/><text fill="#2D3748" font-family="Arial" font-size="12" lengthAdjust="spacing" textLength="128" x="1108.3" y="928.5508">Validando Red General</text></g><g id="AptoParaValidacion.PoblacionGeneral.SinContratoGeneral"><rect fill="#FCE8E6" height="50" rx="12.5" ry="12.5" style="stroke:#4A5568;stroke-width:0.5;" width="135" x="1320.8" y="912.0986"/><line style="stroke:#4A5568;stroke-width:0.5;" x1="1320.8" x2="1455.8" y1="935.8975" y2="935.8975"/><text fill="#2D3748" font-family="Arial" font-size="12" lengthAdjust="spacing" textLength="115" x="1330.8" y="928.5508">Sin Contrato General</text></g><ellipse cx="1095.3" cy="53.0986" fill="#222222" rx="10" ry="10" style="stroke:#222222;stroke-width:1.0;"/><g id="Cargando"><rect fill="#E8F0FE" height="50" rx="12.5" ry="12.5" style="stroke:#4A5568;stroke-width:0.5;" width="118" x="1036.3" y="138.0986"/><line style="stroke:#4A5568;stroke-width:0.5;" x1="1036.3" x2="1154.3" y1="161.8975" y2="161.8975"/><text fill="#2D3748" font-family="Arial" font-size="12" lengthAdjust="spacing" textLength="98" x="1046.3" y="154.5508">Cargando Afiliado</text></g><g id="EvaluandoExclusiones"><rect fill="#E8F0FE" height="50" rx="12.5" ry="12.5" style="stroke:#4A5568;stroke-width:0.5;" width="148" x="1021.3" y="270.5986"/><line style="stroke:#4A5568;stroke-width:0.5;" x1="1021.3" x2="1169.3" y1="294.3975" y2="294.3975"/><text fill="#2D3748" font-family="Arial" font-size="12" lengthAdjust="spacing" textLength="128" x="1031.3" y="287.0508">Evaluando Exclusiones</text></g><g id="elem_GMN7"><path d="M1204.8,263.0986 L1204.8,291.5986 L1169.52,295.5986 L1204.8,299.5986 L1204.8,328.2939 A0,0 0 0 0 1204.8,328.2939 L1463.8,328.2939 A0,0 0 0 0 1463.8,328.2939 L1463.8,273.0986 L1453.8,263.0986 L1204.8,263.0986 A0,0 0 0 0 1204.8,263.0986 " fill="#FEFFDD" style="stroke:#181818;stroke-width:0.5;"/><path d="M1453.8,263.0986 L1453.8,273.0986 L1463.8,273.0986 L1453.8,263.0986 " fill="#FEFFDD" style="stroke:#181818;stroke-width:0.5;"/><text fill="#000000" font-family="Arial" font-size="12" lengthAdjust="spacing" textLength="128" x="1210.8" y="279.5508">Se verifica si el afiliado:</text><text fill="#000000" font-family="Arial" font-size="12" lengthAdjust="spacing" textLength="160" x="1210.8" y="293.3496">- Est&#225; fallecido o suspendido</text><text fill="#000000" font-family="Arial" font-size="12" lengthAdjust="spacing" textLength="145" x="1210.8" y="307.1484">- No est&#225; activo en ADRES</text><text fill="#000000" font-family="Arial" font-size="12" lengthAdjust="spacing" textLength="238" x="1210.8" y="320.9473">- No est&#225; certificado en LMA/Compensados</text></g><g id="Excluido"><rect fill="#FCE8E6" height="50" rx="12.5" ry="12.5" style="stroke:#4A5568;stroke-width:0.5;" width="109" x="1658.8" y="422.0986"/><line style="stroke:#4A5568;stroke-width:0.5;" x1="1658.8" x2="1767.8" y1="445.8975" y2="445.8975"/><text fill="#2D3748" font-family="Arial" font-size="12" lengthAdjust="spacing" textLength="89" x="1668.8" y="438.5508">Afiliado Excluido</text></g><g id="Auditoria"><rect fill="#FCE8E6" height="50" rx="12.5" ry="12.5" style="stroke:#4A5568;stroke-width:0.5;" width="100" x="1719.3" y="547.0986"/><line style="stroke:#4A5568;stroke-width:0.5;" x1="1719.3" x2="1819.3" y1="570.8975" y2="570.8975"/><text fill="#2D3748" font-family="Arial" font-size="12" lengthAdjust="spacing" textLength="80" x="1729.3" y="563.5508">Hoja: Auditor&#237;a</text></g><g id="Red_OK"><rect fill="#E6F4EA" height="50" rx="12.5" ry="12.5" style="stroke:#4A5568;stroke-width:0.5;" width="121" x="234.8" y="1238.0986"/><line style="stroke:#4A5568;stroke-width:0.5;" x1="234.8" x2="355.8" y1="1261.8975" y2="1261.8975"/><text fill="#2D3748" font-family="Arial" font-size="12" lengthAdjust="spacing" textLength="101" x="244.8" y="1254.5508">Red Correcta (OK)</text></g><g id="Red_Inconsistente"><rect fill="#FEF7E0" height="50" rx="12.5" ry="12.5" style="stroke:#4A5568;stroke-width:0.5;" width="139" x="910.8" y="1238.0986"/><line style="stroke:#4A5568;stroke-width:0.5;" x1="910.8" x2="1049.8" y1="1261.8975" y2="1261.8975"/><text fill="#2D3748" font-family="Arial" font-size="12" lengthAdjust="spacing" textLength="119" x="920.8" y="1254.5508">Red Incorrecta / Vac&#237;a</text></g><g id="CasosEspecialesIndigenas"><rect fill="#FCE8E6" height="50" rx="12.5" ry="12.5" style="stroke:#4A5568;stroke-width:0.5;" width="154" x="634.3" y="1363.0986"/><line style="stroke:#4A5568;stroke-width:0.5;" x1="634.3" x2="788.3" y1="1386.8975" y2="1386.8975"/><text fill="#2D3748" font-family="Arial" font-size="12" lengthAdjust="spacing" textLength="134" x="644.3" y="1379.5508">Hoja: Casos Especiales</text></g><g id="Red_SinContrato"><rect fill="#FCE8E6" height="50" rx="12.5" ry="12.5" style="stroke:#4A5568;stroke-width:0.5;" width="149" x="1584.8" y="1055.0986"/><line style="stroke:#4A5568;stroke-width:0.5;" x1="1584.8" x2="1733.8" y1="1092.6963" y2="1092.6963"/><text fill="#2D3748" font-family="Arial" font-size="12" lengthAdjust="spacing" textLength="129" x="1594.8" y="1071.5508">Hoja: Red Consolidada</text><text fill="#2D3748" font-family="Arial" font-size="12" lengthAdjust="spacing" textLength="121" x="1598.8" y="1085.3496">(Estado: Sin Contrato)</text></g><g id="SinNovedad"><rect fill="#E6F4EA" height="50" rx="12.5" ry="12.5" style="stroke:#4A5568;stroke-width:0.5;" width="149" x="391.8" y="1363.0986"/><line style="stroke:#4A5568;stroke-width:0.5;" x1="391.8" x2="540.8" y1="1400.6963" y2="1400.6963"/><text fill="#2D3748" font-family="Arial" font-size="12" lengthAdjust="spacing" textLength="129" x="401.8" y="1379.5508">Hoja: Red Consolidada</text><text fill="#2D3748" font-family="Arial" font-size="12" lengthAdjust="spacing" textLength="123" x="404.8" y="1393.3496">(Estado: Sin Novedad)</text></g><g id="DetalleInconsistencias"><rect fill="#FEF7E0" height="50" rx="12.5" ry="12.5" style="stroke:#4A5568;stroke-width:0.5;" width="181" x="889.8" y="1363.0986"/><line style="stroke:#4A5568;stroke-width:0.5;" x1="889.8" x2="1070.8" y1="1400.6963" y2="1400.6963"/><text fill="#2D3748" font-family="Arial" font-size="12" lengthAdjust="spacing" textLength="161" x="899.8" y="1379.5508">Hoja: Detalle Inconsistencias</text><text fill="#2D3748" font-family="Arial" font-size="12" lengthAdjust="spacing" textLength="107" x="926.8" y="1393.3496">(Genera cargue .txt)</text></g><ellipse cx="980.3" cy="1485.0986" fill="none" rx="11" ry="11" style="stroke:#222222;stroke-width:1.0;"/><ellipse cx="980.3" cy="1485.0986" fill="#222222" rx="6" ry="6" style="stroke:#222222;stroke-width:1.0;"/><!--link *start* to Cargando--><g id="link_*start*_Cargando"><path d="M1095.3,63.3086 C1095.3,79.6286 1095.3,108.1386 1095.3,131.7286 " fill="none" id="*start*-to-Cargando" style="stroke:#181818;stroke-width:1.0;"/><polygon fill="#181818" points="1095.3,137.7286,1099.3,128.7286,1095.3,132.7286,1091.3,128.7286,1095.3,137.7286" style="stroke:#181818;stroke-width:1.0;"/><text fill="#000000" font-family="Arial" font-size="12" lengthAdjust="spacing" textLength="202" x="1096.3" y="105.5508">Registro del afiliado entra al sistema</text></g><!--link Cargando to EvaluandoExclusiones--><g id="link_Cargando_EvaluandoExclusiones"><path d="M1095.3,188.3386 C1095.3,211.7786 1095.3,241.0886 1095.3,264.4886 " fill="none" id="Cargando-to-EvaluandoExclusiones" style="stroke:#181818;stroke-width:1.0;"/><polygon fill="#181818" points="1095.3,270.4886,1099.3,261.4886,1095.3,265.4886,1091.3,261.4886,1095.3,270.4886" style="stroke:#181818;stroke-width:1.0;"/><text fill="#000000" font-family="Arial" font-size="12" lengthAdjust="spacing" textLength="105" x="1096.3" y="230.5508">Iniciar validaciones</text></g><!--link EvaluandoExclusiones to Excluido--><g id="link_EvaluandoExclusiones_Excluido"><path d="M1160.7,320.6386 C1169.56,323.4186 1178.6,325.9986 1187.3,328.0986 C1346.64,366.5886 1394.06,338.3286 1552.3,381.0986 C1590.28,391.3586 1625.8902,405.605 1657.0602,419.505 " fill="none" id="EvaluandoExclusiones-to-Excluido" style="stroke:#181818;stroke-width:1.0;"/><polygon fill="#181818" points="1662.54,421.9486,1655.9494,414.6299,1657.9735,419.9122,1652.6911,421.9363,1662.54,421.9486" style="stroke:#181818;stroke-width:1.0;"/><text fill="#000000" font-family="Arial" font-size="12" lengthAdjust="spacing" textLength="156" x="1517.3" y="370.5508">Cumple criterio de exclusi&#243;n</text></g><!--link EvaluandoExclusiones to AptoParaValidacion--><g id="link_EvaluandoExclusiones_AptoParaValidacion"><path d="M1021.05,296.0686 C875.26,296.7086 559.42,306.8486 486.3,381.0986 C483.8275,383.6099 481.8366,386.4661 480.2468,389.547 C479.4519,391.0874 478.7574,392.684 478.153,394.3217 C477.8509,395.1405 479.3395,390.2361 479.0812,391.0736 " fill="none" id="EvaluandoExclusiones-to-AptoParaValidacion" style="stroke:#181818;stroke-width:1.0;"/><polygon fill="#181818" points="477.313,396.8072,483.7877,389.3857,478.7865,392.0292,476.143,387.028,477.313,396.8072" style="stroke:#181818;stroke-width:1.0;"/><text fill="#000000" font-family="Arial" font-size="12" lengthAdjust="spacing" textLength="146" x="517.3" y="370.5508">Pasa filtros iniciales (Apto)</text></g><!--link Excluido to Auditoria--><g id="link_Excluido_Auditoria"><path d="M1724.23,472.1086 C1734.04,493.6386 1745.8622,519.6287 1755.7222,541.2687 " fill="none" id="Excluido-to-Auditoria" style="stroke:#181818;stroke-width:1.0;"/><polygon fill="#181818" points="1758.21,546.7286,1758.1183,536.8802,1756.1369,542.1787,1750.8384,540.1972,1758.21,546.7286" style="stroke:#181818;stroke-width:1.0;"/><text fill="#000000" font-family="Arial" font-size="12" lengthAdjust="spacing" textLength="165" x="1745.3" y="514.5508">Registrar en Hoja de Auditor&#237;a</text></g><!--link *start*AptoParaValidacion to EvaluandoPoblacion--><g id="link_*start*AptoParaValidacion_EvaluandoPoblacion"><path d="M662.3,457.3386 C662.3,476.1186 662.3,513.2386 662.3,540.6686 " fill="none" id="*start*AptoParaValidacion-to-EvaluandoPoblacion" style="stroke:#181818;stroke-width:1.0;"/><polygon fill="#181818" points="662.3,546.6686,666.3,537.6686,662.3,541.6686,658.3,537.6686,662.3,546.6686" style="stroke:#181818;stroke-width:1.0;"/></g><!--link EvaluandoPoblacion to Ca?oMochuelo--><g id="link_EvaluandoPoblacion_Ca&#241;oMochuelo"><path d="M598.38,597.1686 C574.48,609.3986 549.48,626.7186 534.3,650.0986 C532.3813,653.0549 530.8098,656.2483 529.5298,659.5781 C528.8898,661.2431 528.3226,662.9421 527.8213,664.6626 C527.6959,665.0927 529.1438,659.733 529.0266,660.1656 " fill="none" id="EvaluandoPoblacion-to-Ca&#241;oMochuelo" style="stroke:#181818;stroke-width:1.0;"/><polygon fill="#181818" points="527.4575,665.9568,533.6719,658.316,528.7651,661.1308,525.9503,656.2239,527.4575,665.9568" style="stroke:#181818;stroke-width:1.0;"/><text fill="#000000" font-family="Arial" font-size="12" lengthAdjust="spacing" textLength="175" x="553.3" y="639.5508">Es Poblaci&#243;n Especial Ind&#237;gena</text></g><!--link EvaluandoPoblacion to PoblacionGeneral--><g id="link_EvaluandoPoblacion_PoblacionGeneral"><path d="M730.59,575.1186 C805.91,580.1086 928.34,596.6186 1018.3,650.0986 C1034.175,659.5386 1047.81,675.0836 1057.65,688.6049 C1060.11,691.9852 1062.3328,695.239 1064.2941,698.2394 C1064.7845,698.9894 1065.2585,699.7237 1065.7157,700.4401 C1065.83,700.6192 1065.9433,700.7972 1066.0555,700.974 C1066.1116,701.0624 1062.9593,696.0803 1063.0149,696.1682 " fill="none" id="EvaluandoPoblacion-to-PoblacionGeneral" style="stroke:#181818;stroke-width:1.0;"/><polygon fill="#181818" points="1066.2231,701.2384,1064.791,691.4942,1063.5496,697.0132,1058.0306,695.7718,1066.2231,701.2384" style="stroke:#181818;stroke-width:1.0;"/><text fill="#000000" font-family="Arial" font-size="12" lengthAdjust="spacing" textLength="120" x="1001.3" y="639.5508">Es Poblaci&#243;n General</text></g><!--link *start*Ca?oMochuelo to ChequearUbicacion--><g id="link_*start*Ca&#241;oMochuelo_ChequearUbicacion"><path d="M694.3,726.1086 C694.3,739.9886 694.3,761.0686 694.3,780.9386 " fill="none" id="*start*Ca&#241;oMochuelo-to-ChequearUbicacion" style="stroke:#181818;stroke-width:1.0;"/><polygon fill="#181818" points="694.3,786.9386,698.3,777.9386,694.3,781.9386,690.3,777.9386,694.3,786.9386" style="stroke:#181818;stroke-width:1.0;"/></g><!--link ChequearUbicacion to ValidandoIPSEspecial--><g id="link_ChequearUbicacion_ValidandoIPSEspecial"><path d="M715.58,837.1086 C734.66,858.6386 758.5503,885.5985 777.7303,907.2385 " fill="none" id="ChequearUbicacion-to-ValidandoIPSEspecial" style="stroke:#181818;stroke-width:1.0;"/><polygon fill="#181818" points="781.71,911.7286,778.7338,902.3402,778.3936,907.9868,772.7469,907.6465,781.71,911.7286" style="stroke:#181818;stroke-width:1.0;"/><text fill="#000000" font-family="Arial" font-size="12" lengthAdjust="spacing" textLength="229" x="756.3" y="879.5508">Ubicado en Hato Corozal o Paz de Ariporo</text></g><!--link ChequearUbicacion to ChequearPortabilidad--><g id="link_ChequearUbicacion_ChequearPortabilidad"><path d="M627.72,830.7486 C609.92,838.8286 592.75,850.4586 582.3,867.0986 C573.1,881.7586 578.4183,894.0781 590.3683,907.4281 " fill="none" id="ChequearUbicacion-to-ChequearPortabilidad" style="stroke:#181818;stroke-width:1.0;"/><polygon fill="#181818" points="594.37,911.8986,591.3478,902.5249,591.0352,908.1732,585.387,907.8606,594.37,911.8986" style="stroke:#181818;stroke-width:1.0;"/><text fill="#000000" font-family="Arial" font-size="12" lengthAdjust="spacing" textLength="144" x="583.3" y="879.5508">Ubicado en otro municipio</text></g><!--link ChequearPortabilidad to ValidandoRedReceptora--><g id="link_ChequearPortabilidad_ValidandoRedReceptora"><path d="M651.75,962.2786 C668.7,975.3386 690.83,991.0186 712.3,1002.0986 C721.92,1007.0586 726.5,1003.7986 735.3,1010.0986 C751.76,1021.8686 762.4179,1034.9994 772.0079,1049.7394 " fill="none" id="ChequearPortabilidad-to-ValidandoRedReceptora" style="stroke:#181818;stroke-width:1.0;"/><polygon fill="#181818" points="775.28,1054.7686,773.7247,1045.0434,772.5533,1050.5776,767.019,1049.4061,775.28,1054.7686" style="stroke:#181818;stroke-width:1.0;"/><text fill="#000000" font-family="Arial" font-size="12" lengthAdjust="spacing" textLength="181" x="752.3" y="1022.5508">Portabilidad Regional activa (PR)</text></g><!--link ChequearPortabilidad to AnomaliaIndigena--><g id="link_ChequearPortabilidad_AnomaliaIndigena"><path d="M616.82,962.2786 C613.95,976.1886 610.74,994.0286 609.3,1010.0986 C608.71,1016.7386 609.12,1018.4386 609.3,1025.0986 C609.57,1034.8586 609.7665,1039.6091 610.3165,1048.9291 " fill="none" id="ChequearPortabilidad-to-AnomaliaIndigena" style="stroke:#181818;stroke-width:1.0;"/><polygon fill="#181818" points="610.67,1054.9186,614.1329,1045.6986,610.3754,1049.9273,606.1468,1046.1699,610.67,1054.9186" style="stroke:#181818;stroke-width:1.0;"/><text fill="#000000" font-family="Arial" font-size="12" lengthAdjust="spacing" textLength="120" x="610.3" y="1022.5508">Sin portabilidad activa</text></g><!--link *start*PoblacionGeneral to BuscarContratoGeneral--><g id="link_*start*PoblacionGeneral_BuscarContratoGeneral"><path d="M1251.3,726.1086 C1251.3,739.9886 1251.3,761.0686 1251.3,780.9386 " fill="none" id="*start*PoblacionGeneral-to-BuscarContratoGeneral" style="stroke:#181818;stroke-width:1.0;"/><polygon fill="#181818" points="1251.3,786.9386,1255.3,777.9386,1251.3,781.9386,1247.3,777.9386,1251.3,786.9386" style="stroke:#181818;stroke-width:1.0;"/></g><!--link BuscarContratoGeneral to ValidandoRedGeneral--><g id="link_BuscarContratoGeneral_ValidandoRedGeneral"><path d="M1188.07,826.2586 C1165.95,834.2286 1143.39,846.9286 1130.3,867.0986 C1120.76,881.8086 1126.444,894.2237 1138.964,907.5637 " fill="none" id="BuscarContratoGeneral-to-ValidandoRedGeneral" style="stroke:#181818;stroke-width:1.0;"/><polygon fill="#181818" points="1143.07,911.9386,1139.8276,902.6388,1139.6483,908.2928,1133.9943,908.1135,1143.07,911.9386" style="stroke:#181818;stroke-width:1.0;"/><text fill="#000000" font-family="Arial" font-size="12" lengthAdjust="spacing" textLength="167" x="1131.3" y="879.5508">Existe contrato en el municipio</text></g><!--link BuscarContratoGeneral to SinContratoGeneral--><g id="link_BuscarContratoGeneral_SinContratoGeneral"><path d="M1278.04,837.1086 C1302.03,858.6386 1332.5848,886.0809 1356.6948,907.7209 " fill="none" id="BuscarContratoGeneral-to-SinContratoGeneral" style="stroke:#181818;stroke-width:1.0;"/><polygon fill="#181818" points="1361.16,911.7286,1357.134,902.7402,1357.439,908.3888,1351.7904,908.6938,1361.16,911.7286" style="stroke:#181818;stroke-width:1.0;"/><text fill="#000000" font-family="Arial" font-size="12" lengthAdjust="spacing" textLength="152" x="1328.3" y="879.5508">Sin contrato en el municipio</text></g><!--link ValidandoIPSEspecial to Red_OK--><g id="link_ValidandoIPSEspecial_Red_OK"><path d="M777.76,962.3886 C760.69,976.9186 736.91,994.0786 712.3,1002.0986 C663.59,1017.9786 302.19,1004.2386 251.3,1010.0986 C156.91,1020.9786 102,981.1786 42.3,1055.0986 C6,1100.0486 7.9,1138.6786 42.3,1185.0986 C65.3,1216.1286 161.4504,1238.5457 228.7104,1251.0057 " fill="none" id="ValidandoIPSEspecial-to-Red_OK" style="stroke:#181818;stroke-width:1.0;"/><polygon fill="#181818" points="234.61,1252.0986,226.4892,1246.5262,229.6936,1251.1879,225.032,1254.3923,234.61,1252.0986" style="stroke:#181818;stroke-width:1.0;"/><text fill="#000000" font-family="Arial" font-size="12" lengthAdjust="spacing" textLength="190" x="43.3" y="1085.0508">IPS asignada es IPSI (900827186)</text></g><!--link ValidandoIPSEspecial to Red_Inconsistente--><g id="link_ValidandoIPSEspecial_Red_Inconsistente"><path d="M877.62,961.1086 C901.81,972.1786 926.48,987.9986 942.3,1010.0986 C992.52,1080.2586 988.8833,1183.779 984.0133,1231.969 " fill="none" id="ValidandoIPSEspecial-to-Red_Inconsistente" style="stroke:#181818;stroke-width:1.0;"/><polygon fill="#181818" points="983.41,1237.9386,988.2946,1229.3864,983.9127,1232.964,980.3352,1228.5821,983.41,1237.9386" style="stroke:#181818;stroke-width:1.0;"/><text fill="#000000" font-family="Arial" font-size="12" lengthAdjust="spacing" textLength="3" x="1050.3" y="1071.0508">&#160;</text><text fill="#000000" font-family="Arial" font-size="12" lengthAdjust="spacing" textLength="3" x="1050.3" y="1084.8496">&#160;</text><text fill="#000000" font-family="Arial" font-size="12" lengthAdjust="spacing" textLength="128" x="989.3" y="1098.6484">No es IPSI o est&#225; Vac&#237;o</text></g><!--link ValidandoRedReceptora to Red_OK--><g id="link_ValidandoRedReceptora_Red_OK"><path d="M774.78,1105.2186 C758.14,1130.3186 728.34,1168.2686 691.3,1185.0986 C670.04,1194.7586 504.2,1188.5386 481.3,1193.0986 C434.18,1202.4886 388.6821,1219.7356 352.0321,1235.6756 " fill="none" id="ValidandoRedReceptora-to-Red_OK" style="stroke:#181818;stroke-width:1.0;"/><polygon fill="#181818" points="346.53,1238.0686,356.3785,1238.1472,351.1151,1236.0745,353.1879,1230.811,346.53,1238.0686" style="stroke:#181818;stroke-width:1.0;"/><text fill="#000000" font-family="Arial" font-size="12" lengthAdjust="spacing" textLength="237" x="482.3" y="1205.5508">IPS coincide con red del municipio receptor</text></g><!--link ValidandoRedReceptora to Red_Inconsistente--><g id="link_ValidandoRedReceptora_Red_Inconsistente"><path d="M765.15,1105.1886 C740.81,1132.4086 710.17,1176.9686 735.3,1208.0986 C775,1257.2786 812.59,1224.4586 874.3,1238.0986 C886.09,1240.7086 892.757,1242.1887 904.907,1244.9287 " fill="none" id="ValidandoRedReceptora-to-Red_Inconsistente" style="stroke:#181818;stroke-width:1.0;"/><polygon fill="#181818" points="910.76,1246.2486,902.8604,1240.3667,905.8825,1245.1487,901.1005,1248.1707,910.76,1246.2486" style="stroke:#181818;stroke-width:1.0;"/><text fill="#000000" font-family="Arial" font-size="12" lengthAdjust="spacing" textLength="217" x="736.3" y="1205.5508">No coincide con Red Receptora o Vac&#237;o</text></g><!--link ValidandoRedGeneral to Red_OK--><g id="link_ValidandoRedGeneral_Red_OK"><path d="M1127.26,962.1386 C1097.3,976.7686 1056.57,994.1386 1018.3,1002.0986 C965.64,1013.0586 587.76,1004.1686 534.3,1010.0986 C436.41,1020.9586 383.43,982.1086 317.3,1055.0986 C271.2,1105.9886 280.2614,1189.4696 288.5914,1232.1796 " fill="none" id="ValidandoRedGeneral-to-Red_OK" style="stroke:#181818;stroke-width:1.0;"/><polygon fill="#181818" points="289.74,1238.0686,291.9432,1228.4694,288.7829,1233.1611,284.0911,1230.0008,289.74,1238.0686" style="stroke:#181818;stroke-width:1.0;"/><text fill="#000000" font-family="Arial" font-size="12" lengthAdjust="spacing" textLength="215" x="318.3" y="1085.0508">IPS coincide con contrato del municipio</text></g><!--link ValidandoRedGeneral to Red_Inconsistente--><g id="link_ValidandoRedGeneral_Red_Inconsistente"><path d="M1158.03,962.1886 C1122.48,1022.1686 1033.3685,1172.5367 997.7285,1232.6867 " fill="none" id="ValidandoRedGeneral-to-Red_Inconsistente" style="stroke:#181818;stroke-width:1.0;"/><polygon fill="#181818" points="994.67,1237.8486,1002.6991,1232.1448,997.2188,1233.547,995.8165,1228.0667,994.67,1237.8486" style="stroke:#181818;stroke-width:1.0;"/><text fill="#000000" font-family="Arial" font-size="12" lengthAdjust="spacing" textLength="208" x="1102.3" y="1085.0508">No coincide con Contrato o est&#225; Vac&#237;o</text></g><!--link AnomaliaIndigena to CasosEspecialesIndigenas--><g id="link_AnomaliaIndigena_CasosEspecialesIndigenas"><path d="M618.51,1105.2286 C628.69,1144.0786 650.02,1222.7586 672.3,1288.0986 C681.13,1313.9786 690.4774,1337.478 698.7474,1357.378 " fill="none" id="AnomaliaIndigena-to-CasosEspecialesIndigenas" style="stroke:#181818;stroke-width:1.0;"/><polygon fill="#181818" points="701.05,1362.9186,701.2899,1353.0727,699.1312,1358.3015,693.9024,1356.1428,701.05,1362.9186" style="stroke:#181818;stroke-width:1.0;"/><text fill="#000000" font-family="Arial" font-size="12" lengthAdjust="spacing" textLength="219" x="673.3" y="1268.0508">Registrar en Hoja de Casos Especiales</text></g><!--link SinContratoGeneral to Red_SinContrato--><g id="link_SinContratoGeneral_Red_SinContrato"><path d="M1417.97,962.2386 C1442.25,981.1586 1478.05,1007.1786 1512.3,1025.0986 C1535.07,1037.0086 1555.4099,1045.4596 1579.1399,1053.9396 " fill="none" id="SinContratoGeneral-to-Red_SinContrato" style="stroke:#181818;stroke-width:1.0;"/><polygon fill="#181818" points="1584.79,1055.9586,1577.6609,1049.1633,1580.0816,1054.2761,1574.9688,1056.6967,1584.79,1055.9586" style="stroke:#181818;stroke-width:1.0;"/><text fill="#000000" font-family="Arial" font-size="12" lengthAdjust="spacing" textLength="247" x="1513.3" y="1022.5508">Registrar en Red Consolidada (Sin Contrato)</text></g><!--link Red_OK to SinNovedad--><g id="link_Red_OK_SinNovedad"><path d="M306.03,1288.1186 C313.57,1302.7386 324.88,1320.8886 339.3,1333.0986 C354.48,1345.9486 367.6511,1353.7613 385.9811,1361.6713 " fill="none" id="Red_OK-to-SinNovedad" style="stroke:#181818;stroke-width:1.0;"/><polygon fill="#181818" points="391.49,1364.0486,384.8114,1356.8101,386.8992,1362.0676,381.6417,1364.1553,391.49,1364.0486" style="stroke:#181818;stroke-width:1.0;"/><text fill="#000000" font-family="Arial" font-size="12" lengthAdjust="spacing" textLength="278" x="340.3" y="1330.5508">Registrar en Hoja Red Consolidada (Sin Novedad)</text></g><!--link Red_Inconsistente to DetalleInconsistencias--><g id="link_Red_Inconsistente_DetalleInconsistencias"><path d="M980.3,1288.1086 C980.3,1309.6386 980.3,1335.0886 980.3,1356.7286 " fill="none" id="Red_Inconsistente-to-DetalleInconsistencias" style="stroke:#181818;stroke-width:1.0;"/><polygon fill="#181818" points="980.3,1362.7286,984.3,1353.7286,980.3,1357.7286,976.3,1353.7286,980.3,1362.7286" style="stroke:#181818;stroke-width:1.0;"/><text fill="#000000" font-family="Arial" font-size="12" lengthAdjust="spacing" textLength="229" x="981.3" y="1330.5508">Registrar en Hoja Detalle Inconsistencias</text></g><!--link Auditoria to *end*--><g id="link_Auditoria_*end*"><path d="M1774.22,597.0986 C1779.55,625.2386 1787.3,673.3486 1787.3,715.0986 C1787.3,715.0986 1787.3,715.0986 1787.3,1389.0986 C1787.3,1473.1286 1094.3297,1482.968 997.3997,1483.948 " fill="none" id="Auditoria-to-*end*" style="stroke:#181818;stroke-width:1.0;"/><polygon fill="#181818" points="991.4,1484.0086,1000.44,1487.9174,996.3997,1483.9581,1000.3591,1479.9178,991.4,1484.0086" style="stroke:#181818;stroke-width:1.0;"/></g><!--link SinNovedad to *end*--><g id="link_SinNovedad_*end*"><path d="M541.04,1402.9086 C667.45,1426.2786 909.16,1470.9479 963.63,1481.0179 " fill="none" id="SinNovedad-to-*end*" style="stroke:#181818;stroke-width:1.0;"/><polygon fill="#181818" points="969.53,1482.1086,961.4071,1476.5392,964.6133,1481.1997,959.9528,1484.4059,969.53,1482.1086" style="stroke:#181818;stroke-width:1.0;"/></g><!--link DetalleInconsistencias to *end*--><g id="link_DetalleInconsistencias_*end*"><path d="M980.3,1413.5586 C980.3,1433.1386 980.3,1453.5886 980.3,1467.8986 " fill="none" id="DetalleInconsistencias-to-*end*" style="stroke:#181818;stroke-width:1.0;"/><polygon fill="#181818" points="980.3,1473.8986,984.3,1464.8986,980.3,1468.8986,976.3,1464.8986,980.3,1473.8986" style="stroke:#181818;stroke-width:1.0;"/></g><!--link CasosEspecialesIndigenas to *end*--><g id="link_CasosEspecialesIndigenas_*end*"><path d="M779.53,1413.1986 C845.21,1436.3886 933.3524,1467.5207 964.3024,1478.4507 " fill="none" id="CasosEspecialesIndigenas-to-*end*" style="stroke:#181818;stroke-width:1.0;"/><polygon fill="#181818" points="969.96,1480.4486,962.8056,1473.68,965.2454,1478.7837,960.1417,1481.2234,969.96,1480.4486" style="stroke:#181818;stroke-width:1.0;"/></g><!--link Red_SinContrato to *end*--><g id="link_Red_SinContrato_*end*"><path d="M1618.86,1105.0986 C1484.39,1184.9086 1062.0997,1435.5464 994.4997,1475.6664 " fill="none" id="Red_SinContrato-to-*end*" style="stroke:#181818;stroke-width:1.0;"/><polygon fill="#181818" points="989.34,1478.7286,999.1211,1477.5751,993.6398,1476.1768,995.0381,1470.6955,989.34,1478.7286" style="stroke:#181818;stroke-width:1.0;"/></g><rect fill="#DDDDDD" height="94.4932" id="_legend" rx="7.5" ry="7.5" style="stroke:#000000;stroke-width:1.0;" width="692" x="1200.3" y="1513.0986"/><text fill="#000000" font-family="Arial" font-size="14" font-weight="bold" lengthAdjust="spacing" textLength="38" x="1209.3" y="1533.4595">Color</text><text fill="#000000" font-family="Arial" font-size="14" font-weight="bold" lengthAdjust="spacing" textLength="144" x="1255.3" y="1533.4595">Significado / Destino</text><text fill="#000000" font-family="Arial" font-size="14" font-weight="bold" lengthAdjust="spacing" textLength="124" x="1494.3" y="1533.4595">Acci&#243;n Requerida</text><rect fill="#E8F0FE" height="16.0986" style="stroke:none;stroke-width:1.0;" width="46" x="1205.3" y="1536.1973"/><text fill="#000000" font-family="Arial" font-size="14" lengthAdjust="spacing" textLength="4" x="1205.3" y="1549.5581">&#160;</text><text fill="#000000" font-family="Arial" font-size="14" lengthAdjust="spacing" textLength="201" x="1255.3" y="1549.5581">Afiliado en proceso / evaluaci&#243;n</text><text fill="#000000" font-family="Arial" font-size="14" lengthAdjust="spacing" textLength="136" x="1494.3" y="1549.5581">Ninguna (Autom&#225;tico)</text><rect fill="#E6F4EA" height="16.0986" style="stroke:none;stroke-width:1.0;" width="46" x="1205.3" y="1552.2959"/><text fill="#000000" font-family="Arial" font-size="14" lengthAdjust="spacing" textLength="4" x="1205.3" y="1565.6567">&#160;</text><text fill="#000000" font-family="Arial" font-size="14" lengthAdjust="spacing" textLength="206" x="1255.3" y="1565.6567">Afiliado sin novedades (Red OK)</text><text fill="#000000" font-family="Arial" font-size="14" lengthAdjust="spacing" textLength="212" x="1494.3" y="1565.6567">Ninguna (Se mantiene red actual)</text><rect fill="#FEF7E0" height="16.0986" style="stroke:none;stroke-width:1.0;" width="46" x="1205.3" y="1568.3945"/><text fill="#000000" font-family="Arial" font-size="14" lengthAdjust="spacing" textLength="4" x="1205.3" y="1581.7554">&#160;</text><text fill="#000000" font-family="Arial" font-size="14" lengthAdjust="spacing" textLength="231" x="1255.3" y="1581.7554">Inconsistencia (Requiere correcci&#243;n)</text><text fill="#000000" font-family="Arial" font-size="14" lengthAdjust="spacing" textLength="346" x="1494.3" y="1581.7554">Genera novedad en archivo .txt para cargue correctivo</text><rect fill="#FCE8E6" height="16.0986" style="stroke:none;stroke-width:1.0;" width="46" x="1205.3" y="1584.4932"/><text fill="#000000" font-family="Arial" font-size="14" lengthAdjust="spacing" textLength="4" x="1205.3" y="1597.854">&#160;</text><text fill="#000000" font-family="Arial" font-size="14" lengthAdjust="spacing" textLength="171" x="1255.3" y="1597.854">Excluido o Anomal&#237;a de red</text><text fill="#000000" font-family="Arial" font-size="14" lengthAdjust="spacing" textLength="389" x="1494.3" y="1597.854">Exclusi&#243;n del cargue autom&#225;tico (Auditor&#237;a/Casos Especiales)</text><line style="stroke:#000000;stroke-width:1.0;" x1="1205.3" x2="1887.3" y1="1520.0986" y2="1520.0986"/><line style="stroke:#000000;stroke-width:1.0;" x1="1205.3" x2="1887.3" y1="1536.1973" y2="1536.1973"/><line style="stroke:#000000;stroke-width:1.0;" x1="1205.3" x2="1887.3" y1="1552.2959" y2="1552.2959"/><line style="stroke:#000000;stroke-width:1.0;" x1="1205.3" x2="1887.3" y1="1568.3945" y2="1568.3945"/><line style="stroke:#000000;stroke-width:1.0;" x1="1205.3" x2="1887.3" y1="1584.4932" y2="1584.4932"/><line style="stroke:#000000;stroke-width:1.0;" x1="1205.3" x2="1887.3" y1="1600.5918" y2="1600.5918"/><line style="stroke:#000000;stroke-width:1.0;" x1="1205.3" x2="1205.3" y1="1520.0986" y2="1600.5918"/><line style="stroke:#000000;stroke-width:1.0;" x1="1251.3" x2="1251.3" y1="1520.0986" y2="1600.5918"/><line style="stroke:#000000;stroke-width:1.0;" x1="1490.3" x2="1490.3" y1="1520.0986" y2="1600.5918"/><line style="stroke:#000000;stroke-width:1.0;" x1="1887.3" x2="1887.3" y1="1520.0986" y2="1600.5918"/><!--SRC=[bLVDRXit4BxlKmoSW-K2hXtNiLsX3Q38wyH8umWowajJ5FGkBRDTBHMIQpYk_J1v01-AFe9Uh3Fyqwv4AIYWWvOp_ERlut1eXAaud0esKMpAeEIGQyDAgVim54KbQULAb0o-mB1YMjo8WXLY_c-DWWe6Dw8Ig9tflqGzOmW1f_o6DPKvaxMvO5CEMmCbMBMLrhWK3nnU7cJPDfaLbTGmuJLNhE8QI1kkfIhn_nSm_DwqxQ2NXiFV6S0RKb53MKa5Bmu7hruTdU0gmVkrWzCVZWzFigSigpZ2bw34vDQWpkFFu5JmpwMOr3QwKi8U-eZkr984WyB5E-QV6wue5O-qzQSN-SdP_bd- -Z5c0NWDCoKBhWc2tx6gyRbwX0jHJvgQGM_G63cTVpMYa3iHwUZiC1-qaRIeePPtl6GKVM_CI_ZuVgUDSybXoceZC5sWKCmAqx0gGfxbPyVvFaAUruMijT26ruLW1FMv4LnnAAHItCL6m6zjteDH2eMfubRSIVZUt1jNZ8AfIHDs6f85QyFy93z2Q_bzKJK20v0mgEMKLVDdIohoq4jrP8-7OukCK7fAOQJ2RNj3ff4FkPvnT1m9GR5HzLmHi-otxtw7tTtNC4GOLgFDFjPeWf4gQU7PeYm6dMSLs3HCMPOvycp5dI7lMy3q0izNE8iBP2stPSKl7uoiiK1zJBD0BnMW52bIsELe9-w1rYPhAuaMxDOIDrkkWhn9gcBsaGTtI4jYBiO7hRZxADsbSpN_2ZUigZ2DjZ2wmPJM9NvOXGjCaDLXhgHO-S7fEB_i2WkkJ3WUgF7BXy7UK4uHHrEpi7KXTxCi6P5DNA06TfPcEiEkKoXXq7NROtYandg4mSp84VBmAkOOiKPCCy28iUeQXAq2DOyUAU_42iI35RnmsGykUG9dSS6QSrJ4GnE9XGN6uD_9Fosf5rnTs46hG3x2G6D3SSVVsaeux-jicrWWSmn-9AyhguP2_AqmoSi3_Eg-I2D82Tt1cVyZFyZYjk4LbINNBTHuy93QvVmPZnnRZnI_N1UfLi3yUeOGsp2ccoPboJe4mQD5r2tThee_h-qmsabTf7LuIzsRgL-lxVrbishp6csukb1clKx8xChMLc8X8ILp4UnyT1cZwpjaTu3UCIJAK2hvW1AYp8Dbb18pNDk075P7KXbsBSXCsKMMrF-c3Ps4cP0Rucn3T2BjOAU2xIXquiMBQimBZbnNT6mwYdI6P8tXsaQ3Lz5elBCPrbqXWY431H4G4I_nOforzHmOuZoboHMOboAJbzdWLoYS9jARHkErDPHqfHYv0EycsMfHZeEYDP7SsqbmMcCvmwr3Tayt6bx8RWEL7o-0Rl7NOs8kbvTTWZVWFT4OjGrNhMkEY4i32iveYk6euN9B7TBEK1gxSqqzELjX89wEUFXjXfBd9YGeAQGuqFWV7z_J9OnupFPTdDBGCVm-XzwF-_id1ySlJuvsDaEq9YLqim-VQlhP6z0XXRlmYXNpPvcjnaDPYFJl1jGv62iHTQGh8HLIuEnMsZhRIQfi5mLNtCvlm2s7Xu5rW3lEOwmResoVd1GrKn6sgRS-liYzJf0RWRuLMI3vkW8k9jLurRahUxdzX35XHU1kKnnN5zDgaEbrqyFoU1lTeHCONMudEd5UWqS9KSXEIxJi2bKIPLhQLagFYfRfnV3arEpCZphu3h7U-1BwnqlcFtrVkV3FY5JiIQj-GzSe5TQRtND5Oz5qj-Z-lPEjIiYXKsve_kq-XTA5yQfBpoRjNwWqwuPs1ZtQOBiVFJ3uX5tJ8oNuJy9-QqHqZ8eZPIXSHtkP4dwyMSEh9CHISZ_LFUUsQ-mXou5EeKoXYFy3Aj8aLgHDjAHlQtABmFxnwH-4zE1qi6iA5wgTBV99PSOxEci55PRMW0Jnslm6XUNOmlf_]--></g></svg>