<?xml version="1.0" encoding="us-ascii" standalone="no"?><svg xmlns="http://www.w3.org/2000/svg" xmlns:xlink="http://www.w3.org/1999/xlink" contentStyleType="text/css" height="1076px" preserveAspectRatio="none" style="width:1809px;height:1076px;background:#FFFFFF;" version="1.1" viewBox="0 0 1809 1076" width="1809px" zoomAndPan="magnify"><defs/><g><text fill="#000000" font-family="Arial" font-size="14" font-weight="bold" lengthAdjust="spacing" textLength="573" x="611" y="23.3608">Diagrama de Insumos y Salidas del Proceso de Automatizaci&#243;n (SIE vs Contratada)</text><!--cluster insumos--><g id="cluster_insumos"><rect fill="#F2F4F7" height="112" rx="2.5" ry="2.5" style="stroke:#1F4E78;stroke-width:1.0;" width="1796" x="7" y="180.5986"/><text fill="#000000" font-family="Arial" font-size="14" font-weight="bold" lengthAdjust="spacing" textLength="342" x="734" y="195.9595">Insumos (Bases de Datos y Reportes de Entrada)</text></g><!--cluster notebook--><g id="cluster_notebook"><rect fill="#FFF2CC" height="464" rx="2.5" ry="2.5" style="stroke:#1F4E78;stroke-width:1.0;" width="287" x="757" y="325.5986"/><text fill="#000000" font-family="Arial" font-size="14" font-weight="bold" lengthAdjust="spacing" textLength="266" x="767.5" y="340.9595">Automatizaci&#243;n (Notebook Jupyter v2)</text></g><!--cluster salidas--><g id="cluster_salidas"><rect fill="#F2F4F7" height="218" rx="2.5" ry="2.5" style="stroke:#1F4E78;stroke-width:1.0;" width="630" x="613" y="852.5986"/><text fill="#000000" font-family="Arial" font-size="14" font-weight="bold" lengthAdjust="spacing" textLength="138" x="859" y="867.9595">Salidas del Proceso</text></g><!--cluster folder_out--><g id="cluster_folder_out"><path d="M950.5,903.5986 L1132.5,903.5986 A3.75,3.75 0 0 1 1135,906.0986 L1142,941.7959 L1208.5,941.7959 A2.5,2.5 0 0 1 1211,944.2959 L1211,1036.0986 A2.5,2.5 0 0 1 1208.5,1038.5986 L950.5,1038.5986 A2.5,2.5 0 0 1 948,1036.0986 L948,906.0986 A2.5,2.5 0 0 1 950.5,903.5986 " fill="none" style="stroke:#000000;stroke-width:1.5;"/><line style="stroke:#000000;stroke-width:1.5;" x1="948" x2="1142" y1="941.7959" y2="941.7959"/><text fill="#000000" font-family="Arial" font-size="14" font-weight="bold" lengthAdjust="spacing" textLength="181" x="952" y="918.9595">Directorio de Cargues SIE</text><text fill="#000000" font-family="Arial" font-size="14" font-weight="bold" lengthAdjust="spacing" textLength="164" x="960.5" y="935.0581">(Cargues_SIE_[Fecha]/)</text></g><!--entity sie_rep--><g id="elem_sie_rep"><path d="M23,225.5986 C23,215.5986 86,215.5986 86,215.5986 C86,215.5986 149,215.5986 149,225.5986 L149,266.7959 C149,276.7959 86,276.7959 86,276.7959 C86,276.7959 23,276.7959 23,266.7959 L23,225.5986 " fill="#D9E1F2" style="stroke:#1F4E78;stroke-width:0.5;"/><path d="M23,225.5986 C23,235.5986 86,235.5986 86,235.5986 C86,235.5986 149,235.5986 149,225.5986 " fill="none" style="stroke:#1F4E78;stroke-width:0.5;"/><text fill="#000000" font-family="Arial" font-size="14" lengthAdjust="spacing" textLength="106" x="33" y="252.9595">Reporte Red SIE</text><text fill="#000000" font-family="Arial" font-size="14" lengthAdjust="spacing" textLength="86" x="33" y="269.0581">(Archivo .csv)</text></g><!--entity sie_maestro--><g id="elem_sie_maestro"><path d="M184,225.5986 C184,215.5986 237,215.5986 237,215.5986 C237,215.5986 290,215.5986 290,225.5986 L290,266.7959 C290,276.7959 237,276.7959 237,276.7959 C237,276.7959 184,276.7959 184,266.7959 L184,225.5986 " fill="#D9E1F2" style="stroke:#1F4E78;stroke-width:0.5;"/><path d="M184,225.5986 C184,235.5986 237,235.5986 237,235.5986 C237,235.5986 290,235.5986 290,225.5986 " fill="none" style="stroke:#1F4E78;stroke-width:0.5;"/><text fill="#000000" font-family="Arial" font-size="14" lengthAdjust="spacing" textLength="76" x="194" y="252.9595">Maestro SIE</text><text fill="#000000" font-family="Arial" font-size="14" lengthAdjust="spacing" textLength="86" x="194" y="269.0581">(Archivo .csv)</text></g><!--entity port_base--><g id="elem_port_base"><path d="M325,225.5986 C325,215.5986 437,215.5986 437,215.5986 C437,215.5986 549,215.5986 549,225.5986 L549,266.7959 C549,276.7959 437,276.7959 437,276.7959 C437,276.7959 325,276.7959 325,266.7959 L325,225.5986 " fill="#D9E1F2" style="stroke:#1F4E78;stroke-width:0.5;"/><path d="M325,225.5986 C325,235.5986 437,235.5986 437,235.5986 C437,235.5986 549,235.5986 549,225.5986 " fill="none" style="stroke:#1F4E78;stroke-width:0.5;"/><text fill="#000000" font-family="Arial" font-size="14" lengthAdjust="spacing" textLength="204" x="335" y="252.9595">Portabilidad Regional y Nacional</text><text fill="#000000" font-family="Arial" font-size="14" lengthAdjust="spacing" textLength="94" x="335" y="269.0581">(Archivos .xlsx)</text></g><!--entity lma_base--><g id="elem_lma_base"><path d="M584.5,225.5986 C584.5,215.5986 680,215.5986 680,215.5986 C680,215.5986 775.5,215.5986 775.5,225.5986 L775.5,266.7959 C775.5,276.7959 680,276.7959 680,276.7959 C680,276.7959 584.5,276.7959 584.5,266.7959 L584.5,225.5986 " fill="#D9E1F2" style="stroke:#1F4E78;stroke-width:0.5;"/><path d="M584.5,225.5986 C584.5,235.5986 680,235.5986 680,235.5986 C680,235.5986 775.5,235.5986 775.5,225.5986 " fill="none" style="stroke:#1F4E78;stroke-width:0.5;"/><text fill="#000000" font-family="Arial" font-size="14" lengthAdjust="spacing" textLength="171" x="594.5" y="252.9595">LMA (Liquidaci&#243;n Mensual)</text><text fill="#000000" font-family="Arial" font-size="14" lengthAdjust="spacing" textLength="87" x="594.5" y="269.0581">(Archivo .xlsx)</text></g><!--entity comp_base--><g id="elem_comp_base"><path d="M811,225.5986 C811,215.5986 892,215.5986 892,215.5986 C892,215.5986 973,215.5986 973,225.5986 L973,266.7959 C973,276.7959 892,276.7959 892,276.7959 C892,276.7959 811,276.7959 811,266.7959 L811,225.5986 " fill="#D9E1F2" style="stroke:#1F4E78;stroke-width:0.5;"/><path d="M811,225.5986 C811,235.5986 892,235.5986 892,235.5986 C892,235.5986 973,235.5986 973,225.5986 " fill="none" style="stroke:#1F4E78;stroke-width:0.5;"/><text fill="#000000" font-family="Arial" font-size="14" lengthAdjust="spacing" textLength="142" x="821" y="252.9595">Compensados ADRES</text><text fill="#000000" font-family="Arial" font-size="14" lengthAdjust="spacing" textLength="87" x="821" y="269.0581">(Archivo .xlsx)</text></g><!--entity pe_indigenas--><g id="elem_pe_indigenas"><path d="M1008,225.5986 C1008,215.5986 1119,215.5986 1119,215.5986 C1119,215.5986 1230,215.5986 1230,225.5986 L1230,266.7959 C1230,276.7959 1119,276.7959 1119,276.7959 C1119,276.7959 1008,276.7959 1008,266.7959 L1008,225.5986 " fill="#D9E1F2" style="stroke:#1F4E78;stroke-width:0.5;"/><path d="M1008,225.5986 C1008,235.5986 1119,235.5986 1119,235.5986 C1119,235.5986 1230,235.5986 1230,225.5986 " fill="none" style="stroke:#1F4E78;stroke-width:0.5;"/><text fill="#000000" font-family="Arial" font-size="14" lengthAdjust="spacing" textLength="202" x="1018" y="252.9595">Censo Ind&#237;gena Ca&#241;o Mochuelo</text><text fill="#000000" font-family="Arial" font-size="14" lengthAdjust="spacing" textLength="87" x="1018" y="269.0581">(Archivo .xlsx)</text></g><!--entity adres_base--><g id="elem_adres_base"><path d="M1265,225.5986 C1265,215.5986 1350,215.5986 1350,215.5986 C1350,215.5986 1435,215.5986 1435,225.5986 L1435,266.7959 C1435,276.7959 1350,276.7959 1350,276.7959 C1350,276.7959 1265,276.7959 1265,266.7959 L1265,225.5986 " fill="#D9E1F2" style="stroke:#1F4E78;stroke-width:0.5;"/><path d="M1265,225.5986 C1265,235.5986 1350,235.5986 1350,235.5986 C1350,235.5986 1435,235.5986 1435,225.5986 " fill="none" style="stroke:#1F4E78;stroke-width:0.5;"/><text fill="#000000" font-family="Arial" font-size="14" lengthAdjust="spacing" textLength="150" x="1275" y="252.9595">Maestros BDUA ADRES</text><text fill="#000000" font-family="Arial" font-size="14" lengthAdjust="spacing" textLength="86" x="1275" y="269.0581">(Archivos .txt)</text></g><!--entity ac_base--><g id="elem_ac_base"><path d="M1470,225.5986 C1470,215.5986 1540,215.5986 1540,215.5986 C1540,215.5986 1610,215.5986 1610,225.5986 L1610,266.7959 C1610,276.7959 1540,276.7959 1540,276.7959 C1540,276.7959 1470,276.7959 1470,266.7959 L1470,225.5986 " fill="#D9E1F2" style="stroke:#1F4E78;stroke-width:0.5;"/><path d="M1470,225.5986 C1470,235.5986 1540,235.5986 1540,235.5986 C1540,235.5986 1610,235.5986 1610,225.5986 " fill="none" style="stroke:#1F4E78;stroke-width:0.5;"/><text fill="#000000" font-family="Arial" font-size="14" lengthAdjust="spacing" textLength="120" x="1480" y="252.9595">Maestro Alto Costo</text><text fill="#000000" font-family="Arial" font-size="14" lengthAdjust="spacing" textLength="87" x="1480" y="269.0581">(Archivo .xlsx)</text></g><!--entity contratos_base--><g id="elem_contratos_base"><path d="M1645,225.5986 C1645,215.5986 1716,215.5986 1716,215.5986 C1716,215.5986 1787,215.5986 1787,225.5986 L1787,266.7959 C1787,276.7959 1716,276.7959 1716,276.7959 C1716,276.7959 1645,276.7959 1645,266.7959 L1645,225.5986 " fill="#D9E1F2" style="stroke:#1F4E78;stroke-width:0.5;"/><path d="M1645,225.5986 C1645,235.5986 1716,235.5986 1716,235.5986 C1716,235.5986 1787,235.5986 1787,225.5986 " fill="none" style="stroke:#1F4E78;stroke-width:0.5;"/><text fill="#000000" font-family="Arial" font-size="14" lengthAdjust="spacing" textLength="122" x="1655" y="252.9595">Tabla de Contratos</text><text fill="#000000" font-family="Arial" font-size="14" lengthAdjust="spacing" textLength="79" x="1655" y="269.0581">(Archivo .txt)</text></g><!--entity cargue--><g id="elem_cargue"><rect fill="#F1F1F1" height="46.0986" rx="2.5" ry="2.5" style="stroke:#181818;stroke-width:0.5;" width="227" x="778.5" y="360.5986"/><rect fill="#F1F1F1" height="10" style="stroke:#181818;stroke-width:0.5;" width="15" x="985.5" y="365.5986"/><rect fill="#F1F1F1" height="2" style="stroke:#181818;stroke-width:0.5;" width="4" x="983.5" y="367.5986"/><rect fill="#F1F1F1" height="2" style="stroke:#181818;stroke-width:0.5;" width="4" x="983.5" y="371.5986"/><text fill="#000000" font-family="Arial" font-size="14" lengthAdjust="spacing" textLength="187" x="793.5" y="393.9595">M&#243;dulo de Cargue y Limpieza</text></g><!--entity exclusiones--><g id="elem_exclusiones"><rect fill="#F1F1F1" height="46.0986" rx="2.5" ry="2.5" style="stroke:#181818;stroke-width:0.5;" width="237" x="773.5" y="467.5986"/><rect fill="#F1F1F1" height="10" style="stroke:#181818;stroke-width:0.5;" width="15" x="990.5" y="472.5986"/><rect fill="#F1F1F1" height="2" style="stroke:#181818;stroke-width:0.5;" width="4" x="988.5" y="474.5986"/><rect fill="#F1F1F1" height="2" style="stroke:#181818;stroke-width:0.5;" width="4" x="988.5" y="478.5986"/><text fill="#000000" font-family="Arial" font-size="14" lengthAdjust="spacing" textLength="197" x="788.5" y="500.9595">M&#243;dulo de Cruce y Exclusiones</text></g><!--entity validacion--><g id="elem_validacion"><rect fill="#F1F1F1" height="62.1973" rx="2.5" ry="2.5" style="stroke:#181818;stroke-width:0.5;" width="225" x="773.5" y="589.5986"/><rect fill="#F1F1F1" height="10" style="stroke:#181818;stroke-width:0.5;" width="15" x="978.5" y="594.5986"/><rect fill="#F1F1F1" height="2" style="stroke:#181818;stroke-width:0.5;" width="4" x="976.5" y="596.5986"/><rect fill="#F1F1F1" height="2" style="stroke:#181818;stroke-width:0.5;" width="4" x="976.5" y="600.5986"/><text fill="#000000" font-family="Arial" font-size="14" lengthAdjust="spacing" textLength="185" x="788.5" y="622.9595">M&#243;dulo de Validaci&#243;n de Red</text><text fill="#000000" font-family="Arial" font-size="14" lengthAdjust="spacing" textLength="157" x="788.5" y="639.0581">(Reglas Ca&#241;o Mochuelo)</text></g><!--entity exportacion--><g id="elem_exportacion"><rect fill="#F1F1F1" height="46.0986" rx="2.5" ry="2.5" style="stroke:#181818;stroke-width:0.5;" width="184" x="773" y="727.5986"/><rect fill="#F1F1F1" height="10" style="stroke:#181818;stroke-width:0.5;" width="15" x="937" y="732.5986"/><rect fill="#F1F1F1" height="2" style="stroke:#181818;stroke-width:0.5;" width="4" x="935" y="734.5986"/><rect fill="#F1F1F1" height="2" style="stroke:#181818;stroke-width:0.5;" width="4" x="935" y="738.5986"/><text fill="#000000" font-family="Arial" font-size="14" lengthAdjust="spacing" textLength="144" x="788" y="760.9595">M&#243;dulo de Exportaci&#243;n</text></g><!--entity excel_out--><g id="elem_excel_out"><path d="M629,965.0986 L629,1012.2959 A2.5,2.5 0 0 0 631.5,1014.7959 L918.5,1014.7959 A2.5,2.5 0 0 0 921,1012.2959 L921,972.5986 L911,962.5986 L631.5,962.5986 A2.5,2.5 0 0 0 629,965.0986 " fill="#F1F1F1" style="stroke:#181818;stroke-width:0.5;"/><path d="M911,962.5986 L911,970.0986 A2.5,2.5 0 0 0 913.5,972.5986 L921,972.5986 " fill="#F1F1F1" style="stroke:#181818;stroke-width:0.5;"/><text fill="#000000" font-family="Arial" font-size="14" lengthAdjust="spacing" textLength="146" x="639" y="985.9595">Excel de Consolidaci&#243;n</text><text fill="#000000" font-family="Arial" font-size="14" lengthAdjust="spacing" textLength="272" x="639" y="1002.0581">(Red_Asignada_Consolidada_[Fecha].xlsx)</text></g><!--entity txt_out--><g id="elem_txt_out"><path d="M991.5,965.0986 L991.5,1012.2959 A2.5,2.5 0 0 0 994,1014.7959 L1184,1014.7959 A2.5,2.5 0 0 0 1186.5,1012.2959 L1186.5,972.5986 L1176.5,962.5986 L994,962.5986 A2.5,2.5 0 0 0 991.5,965.0986 " fill="#F1F1F1" style="stroke:#181818;stroke-width:0.5;"/><path d="M1176.5,962.5986 L1176.5,970.0986 A2.5,2.5 0 0 0 1179,972.5986 L1186.5,972.5986 " fill="#F1F1F1" style="stroke:#181818;stroke-width:0.5;"/><text fill="#000000" font-family="Arial" font-size="14" lengthAdjust="spacing" textLength="175" x="1001.5" y="985.9595">TXTs por Municipio/Servicio</text><text fill="#000000" font-family="Arial" font-size="14" lengthAdjust="spacing" textLength="153" x="1001.5" y="1002.0581">(ANSI, separados por '|')</text></g><!--entity analista--><g id="elem_analista"><ellipse cx="237" cy="51.0986" fill="#F1F1F1" rx="8" ry="8" style="stroke:#181818;stroke-width:0.5;"/><path d="M237,59.0986 L237,86.0986 M224,67.0986 L250,67.0986 M237,86.0986 L224,101.0986 M237,86.0986 L250,101.0986 " fill="none" style="stroke:#181818;stroke-width:0.5;"/><text fill="#000000" font-family="Arial" font-size="14" lengthAdjust="spacing" textLength="169" x="152.5" y="115.9595">Analista de Aseguramiento</text></g><!--link analista to sie_rep--><g id="link_analista_sie_rep"><path d="M176.74,118.8386 C164.79,127.7386 152.89,137.8186 143,148.5986 C124.71,168.5286 112.1548,189.8878 102.0548,210.1678 " fill="none" id="analista-to-sie_rep" style="stroke:#181818;stroke-width:1.0;"/><polygon fill="#181818" points="99.38,215.5386,106.9727,209.2656,101.609,211.063,99.8117,205.6992,99.38,215.5386" style="stroke:#181818;stroke-width:1.0;"/><text fill="#000000" font-family="Arial" font-size="13" lengthAdjust="spacing" textLength="84" x="144" y="162.0051">Extrae del SIE</text></g><!--link analista to sie_maestro--><g id="link_analista_sie_maestro"><path d="M237,118.6986 C237,147.9986 237,182.3386 237,209.4986 " fill="none" id="analista-to-sie_maestro" style="stroke:#181818;stroke-width:1.0;"/><polygon fill="#181818" points="237,215.4986,241,206.4986,237,210.4986,233,206.4986,237,215.4986" style="stroke:#181818;stroke-width:1.0;"/><text fill="#000000" font-family="Arial" font-size="13" lengthAdjust="spacing" textLength="84" x="238" y="162.0051">Extrae del SIE</text></g><!--link analista to contratos_base--><g id="link_analista_contratos_base"><path d="M321.82,84.1186 C605,92.9586 1506.85,124.5986 1628,172.5986 C1651.37,181.8586 1668.9169,195.587 1684.9969,211.287 " fill="none" id="analista-to-contratos_base" style="stroke:#181818;stroke-width:1.0;"/><polygon fill="#181818" points="1689.29,215.4786,1685.6448,206.3292,1685.7124,211.9856,1680.056,212.0533,1689.29,215.4786" style="stroke:#181818;stroke-width:1.0;"/><text fill="#000000" font-family="Arial" font-size="13" lengthAdjust="spacing" textLength="140" x="1591" y="162.0051">Obtiene de Contrataci&#243;n</text></g><!--link sie_rep to cargue--><g id="link_sie_rep_cargue"><path d="M122.23,276.6486 C135.3,285.8086 150.62,294.9686 166,300.5986 C275.66,340.7486 597.1513,365.1906 772.3913,375.9606 " fill="none" id="sie_rep-to-cargue" style="stroke:#181818;stroke-width:1.0;"/><polygon fill="#181818" points="778.38,376.3286,769.6423,371.7841,773.3894,376.0219,769.1516,379.769,778.38,376.3286" style="stroke:#181818;stroke-width:1.0;"/></g><!--link sie_maestro to cargue--><g id="link_sie_maestro_cargue"><path d="M268.62,276.7586 C279.95,285.8086 293.31,294.8786 307,300.5986 C389.79,335.2086 626.7829,360.2952 772.2529,373.0352 " fill="none" id="sie_maestro-to-cargue" style="stroke:#181818;stroke-width:1.0;"/><polygon fill="#181818" points="778.23,373.5586,769.6133,368.7887,773.2491,373.1224,768.9153,376.7582,778.23,373.5586" style="stroke:#181818;stroke-width:1.0;"/></g><!--link port_base to cargue--><g id="link_port_base_cargue"><path d="M503.78,276.7286 C523.88,285.0586 546.14,293.7186 567,300.5986 C640.08,324.7186 718.5413,344.4597 782.9713,359.2097 " fill="none" id="port_base-to-cargue" style="stroke:#181818;stroke-width:1.0;"/><polygon fill="#181818" points="788.82,360.5486,780.9396,354.6411,783.9461,359.4328,779.1543,362.4393,788.82,360.5486" style="stroke:#181818;stroke-width:1.0;"/></g><!--link lma_base to cargue--><g id="link_lma_base_cargue"><path d="M726.26,276.6686 C765.74,301.8986 816.5644,334.3874 852.2844,357.2174 " fill="none" id="lma_base-to-cargue" style="stroke:#181818;stroke-width:1.0;"/><polygon fill="#181818" points="857.34,360.4486,851.9107,352.2314,853.127,357.7559,847.6024,358.9722,857.34,360.4486" style="stroke:#181818;stroke-width:1.0;"/></g><!--link comp_base to cargue--><g id="link_comp_base_cargue"><path d="M892,276.8386 C892,302.0786 892,331.7286 892,354.4986 " fill="none" id="comp_base-to-cargue" style="stroke:#181818;stroke-width:1.0;"/><polygon fill="#181818" points="892,360.4986,896,351.4986,892,355.4986,888,351.4986,892,360.4986" style="stroke:#181818;stroke-width:1.0;"/></g><!--link pe_indigenas to cargue--><g id="link_pe_indigenas_cargue"><path d="M1069.46,276.6686 C1027.2,301.8986 972.5121,334.5436 934.2621,357.3736 " fill="none" id="pe_indigenas-to-cargue" style="stroke:#181818;stroke-width:1.0;"/><polygon fill="#181818" points="929.11,360.4486,938.8882,359.2707,933.4034,357.8861,934.7881,352.4013,929.11,360.4486" style="stroke:#181818;stroke-width:1.0;"/></g><!--link adres_base to cargue--><g id="link_adres_base_cargue"><path d="M1299.81,276.6886 C1283.67,285.3086 1265.44,294.1386 1248,300.5986 C1169.2,329.7886 1082.4958,349.6151 1011.4958,363.0251 " fill="none" id="adres_base-to-cargue" style="stroke:#181818;stroke-width:1.0;"/><polygon fill="#181818" points="1005.6,364.1386,1015.186,366.3988,1010.5131,363.2107,1013.7013,358.5378,1005.6,364.1386" style="stroke:#181818;stroke-width:1.0;"/></g><!--link ac_base to cargue--><g id="link_ac_base_cargue"><path d="M1499.28,276.8686 C1485.24,285.8186 1469,294.7886 1453,300.5986 C1304.39,354.5486 1127.4011,372.7514 1011.6911,379.0714 " fill="none" id="ac_base-to-cargue" style="stroke:#181818;stroke-width:1.0;"/><polygon fill="#181818" points="1005.7,379.3986,1014.9048,382.9018,1010.6926,379.1259,1014.4685,374.9137,1005.7,379.3986" style="stroke:#181818;stroke-width:1.0;"/></g><!--link contratos_base to cargue--><g id="link_contratos_base_cargue"><path d="M1675.77,276.6186 C1661.37,285.7786 1644.58,294.9486 1628,300.5986 C1515.67,338.8986 1188.5377,364.2247 1011.5277,375.5747 " fill="none" id="contratos_base-to-cargue" style="stroke:#181818;stroke-width:1.0;"/><polygon fill="#181818" points="1005.54,375.9586,1014.7775,379.3745,1010.5298,375.6387,1014.2656,371.3909,1005.54,375.9586" style="stroke:#181818;stroke-width:1.0;"/></g><!--link cargue to exclusiones--><g id="link_cargue_exclusiones"><path d="M892,406.6086 C892,424.4086 892,443.3686 892,461.2586 " fill="none" id="cargue-to-exclusiones" style="stroke:#181818;stroke-width:1.0;"/><polygon fill="#181818" points="892,467.2586,896,458.2586,892,462.2586,888,458.2586,892,467.2586" style="stroke:#181818;stroke-width:1.0;"/></g><!--link exclusiones to validacion--><g id="link_exclusiones_validacion"><path d="M890.97,513.5986 C889.99,534.4786 888.791,560.0252 887.701,583.2752 " fill="none" id="exclusiones-to-validacion" style="stroke:#181818;stroke-width:1.0;"/><polygon fill="#181818" points="887.42,589.2686,891.8371,580.4658,887.6542,584.2741,883.8459,580.0912,887.42,589.2686" style="stroke:#181818;stroke-width:1.0;"/><text fill="#000000" font-family="Arial" font-size="13" lengthAdjust="spacing" textLength="193" x="890" y="557.0051">Datos Consolidados y Depurados</text></g><!--link validacion to exportacion--><g id="link_validacion_exportacion"><path d="M881.08,651.6086 C877.27,674.8086 873.0613,700.4878 869.6213,721.4578 " fill="none" id="validacion-to-exportacion" style="stroke:#181818;stroke-width:1.0;"/><polygon fill="#181818" points="868.65,727.3786,874.0542,719.1449,869.4594,722.4446,866.1597,717.8498,868.65,727.3786" style="stroke:#181818;stroke-width:1.0;"/><text fill="#000000" font-family="Arial" font-size="13" lengthAdjust="spacing" textLength="218" x="877" y="695.0051">Base de Datos Validada y Novedades</text></g><!--link exportacion to excel_out--><g id="link_exportacion_excel_out"><path d="M772.89,764.8186 C725.71,773.6786 675.22,787.1286 661,805.5986 C620.29,858.4886 687.4913,922.7342 734.4613,958.8042 " fill="none" id="exportacion-to-excel_out" style="stroke:#181818;stroke-width:1.0;"/><polygon fill="#181818" points="739.22,962.4586,734.5182,953.8046,735.2544,959.4133,729.6457,960.1495,739.22,962.4586" style="stroke:#181818;stroke-width:1.0;"/><text fill="#000000" font-family="Arial" font-size="13" lengthAdjust="spacing" textLength="313" x="686" y="819.0051">Pesta&#241;as: Red_Consolidada, Detalle_Inconsistencias,</text><text fill="#000000" font-family="Arial" font-size="13" lengthAdjust="spacing" textLength="361" x="662" y="833.9539">Casos_Especiales_Indigenas, Auditoria, Dashboard_Resumen</text></g><!--link exportacion to folder_out--><g id="link_exportacion_folder_out"><path d="M957.22,761.4486 C984.42,769.1386 1011.33,782.5186 1028,805.5986 C1036.07,816.7686 1036.99,826.1586 1028,836.5986 C1012.46,854.6586 991.7,827.6086 975,844.5986 C969.47,850.2261 965.5113,861.7443 962.6853,875.9129 C961.2723,882.9971 960.1426,890.7441 959.2412,898.7486 C959.1285,899.7491 959.0194,900.7537 958.9138,901.7615 C958.861,902.2655 959.4126,896.8006 959.3615,897.306 " fill="none" id="exportacion-to-folder_out" style="stroke:#181818;stroke-width:1.0;"/><polygon fill="#181818" points="958.7579,903.2756,963.643,894.7236,959.2609,898.301,955.6836,893.9189,958.7579,903.2756" style="stroke:#181818;stroke-width:1.0;"/><text fill="#000000" font-family="Arial" font-size="13" lengthAdjust="spacing" textLength="241" x="1035" y="826.5051">Genera &#225;rbol de directorios y archivos .txt</text></g><!--SRC=[XLR1RXit4BtlLn3AmGxW98WH88qF0TQIjb1XkORb5WMIO35QJcJM5BabkOAIDX-J3-YXo2VenpeaTrVSI6vlg-7Cu-FZlA6SS1BPHC3Am1eOHpPJjbbhopwn1KZ1mL9GiXkZAxJQ9-IDqsjmuZDKOlTDiTF5RCesbesrSWOSS7YQsGUXQY18Di6Fq4XNqE8rh96DSYD0Zf8CWvK3jP9u2TN3okX6yR6Msh0dnNdngdXzD5KRZgPDUrcychx-8KdZn689zX1mycRwiZW_bda4BuFAqSzHhaW7wu8ukSLLGuK2bTCZHk90kvfbFJaswZGylIHiBo2RW0kQtcAjZOkngTUBr0eueYtvCsCzApPgqwcCCvBvlJhDJNKlDfezh-mcLbg1fS5wK3S7jCxe_wnPnvn1tGtj1alXxvtJfYkXwNX4-vhksd_kmInxlfLs6-4yoT8Z3C2kvZaxlH9_D8GMMsMET4gGJrDEUnIvXaEGiLxNL0MSTimdjzF5yTgAqeuKKwMcZkQxlrUeW8rXzuzcSrtTDoZrSQGQIw6uyFdscAQMNKv-oR_dGdAuhOi8m0tQGpBTdUJIQJABTOyGWEgmzWwMCZHWQp9jqzf-vwfRZGXV1arvuDjhxN2fzGFxgQa_EJHiSnvXLBVmf2YAy_4uDALNM2lgUph9xXjlP1W6Op2h1gb3hiIw5lWP8eyGVRp8D9MlcMuhsLXgBBIX3FU_7wtzDGobU08UZ45AKATAgXzURppBfitNwb78wTRtRyHiURG1AXfgU6GaHZ-rSI_KH-4pwMoK4s_Cwfvp8ClBt8gL8k-N_IfzlokmkeSFIIkW1obrupoibZIYs6WYF1zjHAA_ROtU_YhfLuVs8YB5QWyLE7Oixtwx2-vbyqQ9IjH2lrYWsT1dQCxhnUoCMVIpqllF9vxyTH8HgUbQPb-yI2UiaCtlEYWJ1cVMJKRsxDdRRaYn2rARMXH37j4yp6h7qlza3ZkTadzUEXhAc7Wa2kwPULcyiMJVsLd79s35RaqtJyBzR4k3tQXAO_q86bGdqoIDxsV485eTGHqSD5df9HUApAj2Ez2GWA7DivWT2bD_9TzXRUyJ4ZE-LllU34_N1Eicz46Mv4ROtYvKwv-y_OiNxSh1lo5wW_H9UnFppaWa3Ff7q1FQexHaO-yJvWtT2daRx8KtV6gQCwBbG4eiPugaijGWg2e1zkoz6eCbsQQsHWf8adlMtSGP_OdXmfl80u2zNsemlBn5UeDH7L19p7F1VWoCsUwhMUfWSDuRqgi4wNkG_Gi0]--></g></svg>